<?xml version="1.0" encoding="UTF-8"?>
<svg width="1024px" height="750px" viewBox="0 0 1024 750" version="1.1" xmlns="http://www.w3.org/2000/svg" xmlns:xlink="http://www.w3.org/1999/xlink">
    <!-- Generator: Sketch 63.1 (92452) - https://sketch.com -->
    <title>Group 4</title>
    <desc>Created with Sketch.</desc>
    <g id="Page-1" stroke="none" stroke-width="1" fill="none" fill-rule="evenodd">
        <g id="Group-4">
            <g id="Group-3">
                <path d="M294.290323,4 L971,4 C998.614237,4 1021,26.3857625 1021,54 L1021,438.712199 C1021,466.326436 998.614237,488.712199 971,488.712199 L344.290323,488.712199 C316.676085,488.712199 294.290323,466.326436 294.290323,438.712199 L294.290323,4 L294.290323,4 Z" id="Rectangle" fill="#3291C4"></path>
                <rect id="Rectangle" fill="#FAC019" x="294" y="51" width="726.709677" height="484.712199" rx="50"></rect>
                <rect id="Rectangle" fill="#F16D5E" x="295" y="98" width="726.709677" height="484.712199" rx="50"></rect>
                <g id="folder1" fill="#D8D6CC" fill-rule="nonzero">
                    <path d="M82.5958571,749.091533 C60.8071509,749.100671 41.5891428,742.507017 25.5530467,727.210421 C8.15742718,710.617 0.0944056068,689.834558 0.0836317304,665.968502 C-0.0220865879,432.115826 -0.0231367243,319.085923 0.055512023,85.2333119 C0.0696042204,43.3295708 26.2444025,10.3062728 65.7010287,1.94390229 C71.9510703,0.619291756 78.3607836,0.0283307017 84.8127707,0.0296527966 C183.676234,0.0498895137 227.485974,-0.0562023143 326.349309,0.0431937878 C350.979565,0.0679739833 370.561626,10.8823918 385.313737,30.6633844 C399.310357,49.4312862 406.345761,118.885591 418.408602,138.946092 C424.581276,149.211175 439.31237,151.059945 451.44086,151.028361 C596.63846,150.650053 796.220788,151.046764 941.419355,151.028361 C970.389479,151.024694 995.977379,156.894368 1012.98925,181.234033 C1024.0763,197.096855 1024.04645,210.52071 1024,229.563109 C1023.6886,357.192783 1023.26981,446.955292 1023.231,574.585221 C1023.20958,644.908998 1023.77291,594.410172 1023.99896,664.734203 C1024.12279,703.283289 1002.11435,734.84055 967.840698,745.427621 C959.908514,747.877793 951.788916,749.100671 943.459979,749.100671 C854.920345,749.056133 766.380794,749.062105 677.152997,749.054513 C478.508494,749.059205 280.552197,749.046921 82.5958571,749.091533 Z" id="Shape"></path>
                </g>
            </g>
            <g id="Group-2" transform="translate(299.389262, 220.483221)" fill-rule="nonzero">
                <g id="Group" fill="#000000">
                    <path d="M198.248033,422.048908 C110.877853,413.996379 49.038,369.655318 15.4788974,288.468062 C-20.4767437,201.483083 8.04491103,101.499451 81.9869302,43.9653065 C111.56123,20.9535925 144.639689,6.22141538 181.494859,1.75324722 C244.784586,-5.91972578 300.837154,11.5572881 348.516982,54.8780615 C384.155014,87.2578611 406.437361,127.601136 414.278203,175.284293 C424.453425,237.164089 410.388223,293.467521 371.483836,342.566699 C336.713248,386.448644 291.340168,412.224625 236.366711,420.522336 C223.916093,422.401501 211.370252,422.25324 198.248033,422.048908 M387.718125,222.403508 C388.719147,202.953807 387.107843,183.747663 382.156762,164.90497 C360.84248,83.7860829 287.46776,29.1899147 209.560844,29.8323828 C153.073969,30.2981846 106.68328,52.5373061 70.7701094,96.1205105 C23.5271035,153.453243 16.1619098,232.986535 52.1407011,298.162625 C82.5882064,353.318818 129.699241,385.052531 191.641207,391.876931 C238.738278,397.065799 281.585435,383.861782 318.88355,353.918515 C360.36964,320.613169 383.26431,277.035505 387.718125,222.403508 Z" id="Shape"></path>
                    <path d="M118.760984,74.9732965 C180.923039,31.4572785 268.298797,39.7125507 322.170612,93.9549798 C358.264715,130.297366 373.85161,174.519715 370.333925,225.607204 C365.385395,297.475464 308.326117,360.452893 237.704737,372.669754 C150.475861,387.759509 68.8932197,331.988697 50.3241487,244.574223 C36.571779,179.834386 63.6769536,112.410618 118.760984,74.9732965 M311.516278,293.393649 C314.639796,293.834888 315.494336,291.083438 316.783438,289.27268 C327.152682,274.706975 334.342337,258.627624 338.367716,241.150979 C339.430131,236.538316 340.991343,231.890195 340.102389,226.769845 C334.692538,225.385181 329.312582,226.083422 324.008675,226.062073 C319.848553,226.045267 318.366596,224.36722 318.541661,220.229741 C318.797075,214.189459 318.861311,208.122691 318.608449,202.084329 C318.41472,197.458849 320.442428,196.164791 324.662048,196.170627 C329.759758,196.177645 334.950066,196.977793 340.748834,195.238099 C337.63093,170.066284 328.938175,147.660321 312.011867,126.834674 C307.557469,131.86309 303.943465,135.871588 300.412435,139.953848 C298.002517,142.739943 295.961391,143.3242 293.14141,140.139305 C288.896271,135.34462 284.344534,130.798405 279.639607,126.46232 C276.538617,123.604421 276.64456,121.48458 279.485978,118.501282 C283.293202,114.503902 287.850991,111.131187 290.884097,105.737582 C271.20766,90.1230005 249.537635,80.2961317 224.474607,77.6591106 C222.899249,83.5560075 223.629691,89.0073428 223.706834,94.35101 C223.772965,98.9225254 222.056959,100.375595 217.724252,100.159259 C211.765586,99.8616282 205.779505,99.8900684 199.813329,100.065147 C195.700709,100.185817 194.153569,98.5116105 194.159912,94.3589885 C194.168116,88.9873978 194.793564,83.5494693 193.488275,77.5654036 C168.469979,80.6561112 146.395069,89.7309232 124.889026,107.566255 C130.020895,111.778197 134.162097,115.236715 138.369247,118.610835 C141.616791,121.215389 141.638628,123.466649 138.455394,126.374559 C133.735192,130.686525 129.182579,135.231816 124.954611,140.035551 C122.278414,143.076173 120.446841,143.050022 117.757191,140.187506 C113.830281,136.008142 110.172785,131.458195 104.705917,128.160239 C89.0633148,148.022443 80.1099677,170.307809 76.9328223,196.239993 C82.65288,196.239993 87.7753444,196.494298 92.8615335,196.1683 C97.9289122,195.843484 99.5396317,197.996197 99.29665,202.899844 C99.0076223,208.732988 99.0720773,214.604214 99.361068,220.43976 C99.5693439,224.644426 98.0715291,226.161764 93.9029862,226.115187 C88.4243058,226.053984 82.8696138,225.460974 76.9328223,226.665943 C80.0507989,252.212846 89.3915699,274.451376 105.933187,295.553307 C110.368738,290.58347 114.111324,286.428373 117.809505,282.23294 C120.180526,279.543101 122.245166,279.60508 124.730404,282.311984 C129.063038,287.031097 133.521155,291.655654 138.208694,296.008064 C141.297906,298.87638 141.211321,301.015944 138.338952,303.98384 C134.518422,307.931282 129.687428,311.023948 127.018231,316.578039 C145.826275,331.809409 166.953388,340.832989 190.421629,344.503041 C193.115581,344.924261 194.108473,343.720068 194.128268,341.234264 C194.161954,336.998867 194.384229,332.750986 194.140153,328.53125 C193.873912,323.928929 195.347082,321.901207 200.234255,322.225728 C205.981218,322.607205 211.793293,322.596937 217.538908,322.195072 C222.40767,321.854445 223.78485,323.843754 223.695459,328.457452 C223.592651,333.768208 223.079126,339.176993 224.345405,344.893309 C249.43213,341.45566 271.41466,332.335971 291.338345,316.198632 C285.842093,310.388277 280.855867,305.117041 275.726805,299.694812 C282.19557,293.611571 288.249752,288.362942 293.321213,282.141487 C295.531497,279.429928 297.474263,279.720617 299.743314,282.045896 C303.380139,285.772608 307.145365,289.370634 311.516278,293.393649 Z" id="Shape"></path>
                    <path d="M302.692862,232.034394 C293.897225,274.21166 254.328673,311.478041 202.563023,308.333444 C161.589657,305.844462 122.577867,274.454922 114.439942,228.091974 C103.463734,165.558963 154.25793,108.957788 216.619402,114.058674 C261.137504,117.700063 297.381663,152.458995 303.811638,197.349187 C305.462242,208.872903 305.112989,220.196313 302.692862,232.034394 L189.607859,161.118393 M166.858238,252.551108 C171.523026,249.019271 171.749202,245.938461 167.963853,240.753953 C152.454793,219.512847 155.75465,191.258928 175.19846,172.943352 C193.327976,155.865766 221.919373,155.273162 241.296138,171.559465 C242.325814,172.424953 243.127639,173.775894 245.069165,173.467809 C248.350102,170.354386 251.983136,167.288498 254.540121,163.279003 C242.960449,147.590881 215.268981,139.821764 192.715908,145.751608 C164.759474,153.10209 146.415849,173.955884 142.827838,204.541397 C140.441871,224.879858 147.020589,242.726455 162.211422,258.941877 C163.969208,256.432139 165.123419,254.784194 166.858238,252.551108 Z" id="Shape"></path>
                </g>
                <path d="M209.805514,285.055619 C219.519236,285.055619 228.653033,283.506404 237.206908,280.407973 C245.760782,277.309542 253.336035,272.837944 259.932667,266.993177 C266.529299,261.14841 271.748612,254.176941 275.590606,246.07877 C279.432601,237.980599 281.353598,229.002192 281.353598,219.143549 C281.353598,216.608469 281.208617,214.07339 280.918655,211.53831 C280.628693,209.00323 280.193751,206.608989 279.613827,204.355585 L279.613827,204.355585 L207.413329,204.355585 L207.413329,232.030204 L248.51542,232.030204 L248.005721,233.428128 C247.398613,234.913527 246.691831,236.34391 245.885375,237.719279 L244.600935,239.741071 C240.976412,245.022487 236.192041,249.071572 230.247824,251.888327 C224.303606,254.705082 217.489503,256.11346 209.805514,256.11346 C201.541601,256.11346 194.18382,254.24736 187.732169,250.515159 C181.280518,246.782959 176.206186,241.571962 172.509172,234.882168 C168.812159,228.192375 166.963652,220.481508 166.963652,211.749567 C166.963652,202.313437 168.812159,194.215266 172.509172,187.455054 C176.206186,180.694841 181.280518,175.448635 187.732169,171.716434 C194.18382,167.984234 201.541601,166.118134 209.805514,166.118134 C218.214407,166.118134 225.608434,167.843396 231.987595,171.293921 C238.366755,174.744446 243.948521,180.272328 248.732891,187.877567 L248.732891,187.877567 L277.656584,176.680965 C271.567386,163.723892 262.977266,153.759621 251.886226,146.788152 C240.795186,139.816683 226.768282,136.330948 209.805514,136.330948 C198.786964,136.330948 188.674545,138.161839 179.468256,141.823621 C170.261968,145.485402 162.324263,150.66119 155.65514,157.350983 C148.986018,164.040777 143.80295,171.99811 140.105937,181.222983 C136.408923,190.447856 134.560416,200.623384 134.560416,211.749567 C134.560416,225.833342 137.677506,238.403112 143.911686,249.458876 C150.145865,260.51464 158.953456,269.211371 170.334458,275.54907 C181.715461,281.886769 194.872479,285.055619 209.805514,285.055619 Z" id="G" fill="#D8D6CC"></path>
            </g>
        </g>
    </g>
</svg>