<?xml version="1.0" encoding="UTF-8"?>
<svg width="1128px" height="827px" viewBox="0 0 1128 827" version="1.1" xmlns="http://www.w3.org/2000/svg" xmlns:xlink="http://www.w3.org/1999/xlink">
    <!-- Generator: Sketch 63.1 (92452) - https://sketch.com -->
    <title>Group 4</title>
    <desc>Created with Sketch.</desc>
    <g id="Page-1-Copy" stroke="none" stroke-width="1" fill="none" fill-rule="evenodd">
        <g id="Group-8" transform="translate(-275.000000, 3.000000)">
            <g id="Group-4" transform="translate(278.000000, 0.000000)">
                <g id="Group-3">
                    <path d="M322.427349,4.384 L1068.61756,4.384 C1096.2318,4.384 1118.61756,26.7697625 1118.61756,54.384 L1118.61756,485.62857 C1118.61756,513.242808 1096.2318,535.62857 1068.61756,535.62857 L372.427349,535.62857 C344.813111,535.62857 322.427349,513.242808 322.427349,485.62857 L322.427349,4.384 L322.427349,4.384 Z" id="Rectangle" fill="#3291C4"></path>
                    <rect id="Rectangle" fill="#FAC019" x="322.109268" y="55.896" width="796.190212" height="531.24457" rx="50"></rect>
                    <rect id="Rectangle" fill="#F16D5E" x="323.204878" y="107.408" width="796.190212" height="531.24457" rx="50"></rect>
                    <g id="folder1" fill="#D8D6CC" fill-rule="nonzero" stroke="#070707" stroke-width="5">
                        <path d="M90.4928268,821.00432 C66.6209078,821.014336 45.5654706,813.78769 27.9961673,797.022621 C8.9373568,778.836232 0.103431704,756.058676 0.0916277398,729.901478 C-0.0241982812,473.598946 -0.0253488209,349.718172 0.060819514,93.4157098 C0.0762590629,47.4892096 28.7536235,11.295675 71.9826881,2.13051691 C78.8302946,0.678743765 85.852839,0.0310504491 92.921699,0.0324994651 C201.237473,0.0546789071 249.235853,-0.0615977364 357.551487,0.0473403914 C384.536635,0.0744994857 405.990933,11.9271014 422.153489,33.6070693 C437.488323,54.1766897 445.19638,130.298608 458.412547,152.284917 C465.175389,163.535448 481.314918,165.561699 494.603011,165.527084 C653.682918,165.112458 872.347264,165.547254 1031.42823,165.527084 C1063.16818,165.523065 1091.20253,171.956227 1109.8409,198.632501 C1121.98798,216.018153 1121.95529,230.730698 1121.90439,251.601167 C1121.56321,391.48329 1121.10438,489.863 1121.06186,629.745403 C1121.0384,706.820262 1121.65559,651.473548 1121.90326,728.548687 C1122.03892,770.798485 1097.92625,805.385243 1060.37571,816.988672 C1051.68513,819.674061 1042.78922,821.014336 1033.66396,821.014336 C936.659071,820.965521 839.654274,820.972067 741.89543,820.963746 C524.258575,820.968888 307.375724,820.955426 90.4928268,821.00432 Z" id="Shape"></path>
                    </g>
                </g>
                <g id="Group-2" transform="translate(328.000000, 241.000000)" fill="#000000" fill-rule="nonzero">
                    <g id="Group">
                        <path d="M217.219137,462.956721 C121.488174,454.123688 53.7306316,405.484794 16.9601316,316.428324 C-22.4362407,221.012176 8.81475897,111.33746 89.8325694,48.2267192 C122.236946,22.9845554 158.480807,6.82443673 198.862788,1.92318372 C268.208948,-6.49350535 329.625398,12.6774981 381.867889,60.1972117 C420.916259,95.7154789 445.330889,139.969095 453.92205,192.274023 C465.070978,260.151625 449.659823,321.912363 407.032528,375.770563 C368.934612,423.905841 319.21961,452.180204 258.985535,461.282185 C245.34347,463.34349 231.59707,463.180858 217.219137,462.956721 M424.820337,243.96035 C425.917152,222.625453 424.151656,201.55772 418.726787,180.888667 C395.372861,91.9071926 314.976637,32.0191972 229.614513,32.7239376 C167.722196,33.2348881 116.892206,57.6295745 77.5423686,105.437156 C25.778501,168.326961 17.708504,255.569154 57.1302419,327.062548 C90.4913841,387.564851 142.110651,422.374408 209.980079,429.860274 C261.584046,435.552082 308.531409,421.068244 349.398722,388.222674 C394.854773,351.68915 419.94032,303.887646 424.820337,243.96035 Z" id="Shape"></path>
                        <path d="M130.125671,82.2402118 C198.236248,34.5063291 293.973322,43.5617577 353.000336,103.061727 C392.54842,142.926661 409.626884,191.435337 405.772578,247.474569 C400.350504,326.308783 337.831009,395.390408 260.451602,408.791408 C164.875465,425.343764 75.4858723,364.16727 55.1398567,268.279999 C40.0714708,197.265142 69.770442,123.30621 130.125671,82.2402118 M341.326448,321.831331 C344.748867,322.315338 345.685181,319.297199 347.097642,317.31093 C358.459159,301.333419 366.336819,283.69555 370.747401,264.524951 C371.911483,259.465198 373.622093,254.366549 372.648072,248.7499 C366.720532,247.231026 360.825748,247.996946 355.01429,247.973527 C350.45607,247.955092 348.832299,246.114397 349.024117,241.575886 C349.303972,234.950139 349.374355,228.29534 349.097296,221.671699 C348.885028,216.597887 351.106776,215.1784 355.730186,215.184801 C361.315715,215.192499 367.002704,216.070203 373.356378,214.161886 C369.94011,186.55025 360.415512,161.972551 341.869462,139.128342 C336.988806,144.644146 333.028964,149.041174 329.160037,153.519114 C326.519505,156.575257 324.283055,157.216143 321.19322,153.722547 C316.541848,148.463129 311.554537,143.476265 306.399378,138.719897 C303.001643,135.584991 303.117724,133.259681 306.231048,129.987222 C310.402599,125.602389 315.396541,121.902768 318.719896,115.986378 C297.160546,98.8583268 273.416835,88.0789718 245.955431,85.186353 C244.229321,91.6548167 245.029662,97.634532 245.114187,103.496143 C245.186646,108.510761 243.306429,110.104672 238.559109,109.867367 C232.030236,109.540888 225.471324,109.572085 218.934222,109.764133 C214.42805,109.896499 212.732858,108.060017 212.739808,103.504895 C212.748797,97.6126539 213.434096,91.6476448 212.003899,85.0835633 C184.591508,88.473843 160.404167,98.4282467 136.840129,117.992298 C142.463086,122.612491 147.000576,126.406231 151.610324,130.107393 C155.168637,132.964398 155.192564,135.433866 151.704714,138.62363 C146.532818,143.353541 141.544549,148.339392 136.91199,153.608736 C133.979698,156.944076 131.972854,156.915391 129.025822,153.77542 C124.723131,149.190964 120.715635,144.200006 114.725622,140.58239 C97.5861201,162.369772 87.7759933,186.815185 84.2948149,215.260891 C90.5622465,215.260891 96.1748989,215.539845 101.747805,215.182248 C107.3001,214.825949 109.064955,217.187318 108.798722,222.566259 C108.482036,228.96479 108.552659,235.405095 108.869304,241.806262 C109.097511,246.418473 107.456364,248.082881 102.888918,248.031789 C96.8859618,247.964653 90.7997204,247.314166 84.2948149,248.635928 C87.7111624,276.659009 97.9457871,301.053046 116.070334,324.200318 C120.93034,318.748771 125.031068,314.190934 129.083142,309.588852 C131.681055,306.638295 133.943268,306.706282 136.666327,309.675557 C141.413568,314.852079 146.298299,319.924878 151.434406,324.699153 C154.819237,327.845485 154.724367,330.19243 151.57713,333.447995 C147.390998,337.778049 142.097709,341.170477 139.173085,347.262909 C159.780943,363.970605 182.929789,373.868811 208.643795,377.894589 C211.59554,378.356636 212.683446,377.035725 212.705136,374.308979 C212.742045,369.66306 212.985591,365.003445 212.718159,360.374704 C212.426439,355.326296 214.040582,353.102034 219.395428,353.458009 C225.692339,353.876462 232.060593,353.865198 238.356028,353.424381 C243.690701,353.050739 245.199668,355.232865 245.101723,360.293753 C244.989077,366.119263 244.426411,372.052304 245.813864,378.322684 C273.301233,374.551835 297.387355,364.548205 319.217612,346.846726 C313.195403,340.473192 307.732027,334.691034 302.112145,328.743245 C309.199931,322.070376 315.83346,316.313015 321.390228,309.488534 C323.812022,306.514153 325.940699,306.833017 328.426885,309.383677 C332.411731,313.471608 336.537266,317.418379 341.326448,321.831331 Z" id="Shape"></path>
                        <path d="M221.947044,338.219191 C177.052782,335.488961 134.307806,301.056936 125.391133,250.20018 C113.36457,181.606049 169.019454,119.518708 237.348531,125.114006 C286.126739,129.108344 325.839238,167.236345 332.884522,216.477595 C334.693078,229.118267 334.310404,241.539218 331.658686,254.524725 C322.021362,300.790095 278.666345,341.668584 221.947044,338.219191 Z M228.93412,304.65862 C269.478163,304.65862 302.345604,271.754195 302.345604,231.16453 C302.345604,190.574865 269.478163,157.670441 228.93412,157.670441 C188.390078,157.670441 155.522637,190.574865 155.522637,231.16453 C155.522637,271.754195 188.390078,304.65862 228.93412,304.65862 Z" id="Shape"></path>
                    </g>
                </g>
            </g>
        </g>
    </g>
</svg>