<?xml version="1.0" encoding="UTF-8"?>
<svg width="1157px" height="1224px" viewBox="0 0 1157 1224" version="1.1" xmlns="http://www.w3.org/2000/svg" xmlns:xlink="http://www.w3.org/1999/xlink">
    <!-- Generator: Sketch 63.1 (92452) - https://sketch.com -->
    <title>Group 5</title>
    <desc>Created with Sketch.</desc>
    <g id="Page-1" stroke="none" stroke-width="1" fill="none" fill-rule="evenodd">
        <g id="Group-5">
            <g id="Group-4" transform="translate(76.000000, 0.000000)">
                <g id="Group-3">
                    <path d="M294.290323,4 L971,4 C998.614237,4 1021,26.3857625 1021,54 L1021,438.712199 C1021,466.326436 998.614237,488.712199 971,488.712199 L344.290323,488.712199 C316.676085,488.712199 294.290323,466.326436 294.290323,438.712199 L294.290323,4 L294.290323,4 Z" id="Rectangle" fill="#3291C4"></path>
                    <rect id="Rectangle" fill="#FAC019" x="294" y="51" width="726.709677" height="484.712199" rx="50"></rect>
                    <rect id="Rectangle" fill="#F16D5E" x="295" y="98" width="726.709677" height="484.712199" rx="50"></rect>
                    <g id="folder1" fill="#D8D6CC" fill-rule="nonzero">
                        <path d="M82.5958571,749.091533 C60.8071509,749.100671 41.5891428,742.507017 25.5530467,727.210421 C8.15742718,710.617 0.0944056068,689.834558 0.0836317304,665.968502 C-0.0220865879,432.115826 -0.0231367243,319.085923 0.055512023,85.2333119 C0.0696042204,43.3295708 26.2444025,10.3062728 65.7010287,1.94390229 C71.9510703,0.619291756 78.3607836,0.0283307017 84.8127707,0.0296527966 C183.676234,0.0498895137 227.485974,-0.0562023143 326.349309,0.0431937878 C350.979565,0.0679739833 370.561626,10.8823918 385.313737,30.6633844 C399.310357,49.4312862 406.345761,118.885591 418.408602,138.946092 C424.581276,149.211175 439.31237,151.059945 451.44086,151.028361 C596.63846,150.650053 796.220788,151.046764 941.419355,151.028361 C970.389479,151.024694 995.977379,156.894368 1012.98925,181.234033 C1024.0763,197.096855 1024.04645,210.52071 1024,229.563109 C1023.6886,357.192783 1023.26981,446.955292 1023.231,574.585221 C1023.20958,644.908998 1023.77291,594.410172 1023.99896,664.734203 C1024.12279,703.283289 1002.11435,734.84055 967.840698,745.427621 C959.908514,747.877793 951.788916,749.100671 943.459979,749.100671 C854.920345,749.056133 766.380794,749.062105 677.152997,749.054513 C478.508494,749.059205 280.552197,749.046921 82.5958571,749.091533 Z" id="Shape"></path>
                    </g>
                </g>
                <g id="Group-2" transform="translate(299.389262, 220.483221)" fill-rule="nonzero">
                    <g id="Group" fill="#000000">
                        <path d="M198.248033,422.048908 C110.877853,413.996379 49.038,369.655318 15.4788974,288.468062 C-20.4767437,201.483083 8.04491103,101.499451 81.9869302,43.9653065 C111.56123,20.9535925 144.639689,6.22141538 181.494859,1.75324722 C244.784586,-5.91972578 300.837154,11.5572881 348.516982,54.8780615 C384.155014,87.2578611 406.437361,127.601136 414.278203,175.284293 C424.453425,237.164089 410.388223,293.467521 371.483836,342.566699 C336.713248,386.448644 291.340168,412.224625 236.366711,420.522336 C223.916093,422.401501 211.370252,422.25324 198.248033,422.048908 M387.718125,222.403508 C388.719147,202.953807 387.107843,183.747663 382.156762,164.90497 C360.84248,83.7860829 287.46776,29.1899147 209.560844,29.8323828 C153.073969,30.2981846 106.68328,52.5373061 70.7701094,96.1205105 C23.5271035,153.453243 16.1619098,232.986535 52.1407011,298.162625 C82.5882064,353.318818 129.699241,385.052531 191.641207,391.876931 C238.738278,397.065799 281.585435,383.861782 318.88355,353.918515 C360.36964,320.613169 383.26431,277.035505 387.718125,222.403508 Z" id="Shape"></path>
                        <path d="M118.760984,74.9732965 C180.923039,31.4572785 268.298797,39.7125507 322.170612,93.9549798 C358.264715,130.297366 373.85161,174.519715 370.333925,225.607204 C365.385395,297.475464 308.326117,360.452893 237.704737,372.669754 C150.475861,387.759509 68.8932197,331.988697 50.3241487,244.574223 C36.571779,179.834386 63.6769536,112.410618 118.760984,74.9732965 M311.516278,293.393649 C314.639796,293.834888 315.494336,291.083438 316.783438,289.27268 C327.152682,274.706975 334.342337,258.627624 338.367716,241.150979 C339.430131,236.538316 340.991343,231.890195 340.102389,226.769845 C334.692538,225.385181 329.312582,226.083422 324.008675,226.062073 C319.848553,226.045267 318.366596,224.36722 318.541661,220.229741 C318.797075,214.189459 318.861311,208.122691 318.608449,202.084329 C318.41472,197.458849 320.442428,196.164791 324.662048,196.170627 C329.759758,196.177645 334.950066,196.977793 340.748834,195.238099 C337.63093,170.066284 328.938175,147.660321 312.011867,126.834674 C307.557469,131.86309 303.943465,135.871588 300.412435,139.953848 C298.002517,142.739943 295.961391,143.3242 293.14141,140.139305 C288.896271,135.34462 284.344534,130.798405 279.639607,126.46232 C276.538617,123.604421 276.64456,121.48458 279.485978,118.501282 C283.293202,114.503902 287.850991,111.131187 290.884097,105.737582 C271.20766,90.1230005 249.537635,80.2961317 224.474607,77.6591106 C222.899249,83.5560075 223.629691,89.0073428 223.706834,94.35101 C223.772965,98.9225254 222.056959,100.375595 217.724252,100.159259 C211.765586,99.8616282 205.779505,99.8900684 199.813329,100.065147 C195.700709,100.185817 194.153569,98.5116105 194.159912,94.3589885 C194.168116,88.9873978 194.793564,83.5494693 193.488275,77.5654036 C168.469979,80.6561112 146.395069,89.7309232 124.889026,107.566255 C130.020895,111.778197 134.162097,115.236715 138.369247,118.610835 C141.616791,121.215389 141.638628,123.466649 138.455394,126.374559 C133.735192,130.686525 129.182579,135.231816 124.954611,140.035551 C122.278414,143.076173 120.446841,143.050022 117.757191,140.187506 C113.830281,136.008142 110.172785,131.458195 104.705917,128.160239 C89.0633148,148.022443 80.1099677,170.307809 76.9328223,196.239993 C82.65288,196.239993 87.7753444,196.494298 92.8615335,196.1683 C97.9289122,195.843484 99.5396317,197.996197 99.29665,202.899844 C99.0076223,208.732988 99.0720773,214.604214 99.361068,220.43976 C99.5693439,224.644426 98.0715291,226.161764 93.9029862,226.115187 C88.4243058,226.053984 82.8696138,225.460974 76.9328223,226.665943 C80.0507989,252.212846 89.3915699,274.451376 105.933187,295.553307 C110.368738,290.58347 114.111324,286.428373 117.809505,282.23294 C120.180526,279.543101 122.245166,279.60508 124.730404,282.311984 C129.063038,287.031097 133.521155,291.655654 138.208694,296.008064 C141.297906,298.87638 141.211321,301.015944 138.338952,303.98384 C134.518422,307.931282 129.687428,311.023948 127.018231,316.578039 C145.826275,331.809409 166.953388,340.832989 190.421629,344.503041 C193.115581,344.924261 194.108473,343.720068 194.128268,341.234264 C194.161954,336.998867 194.384229,332.750986 194.140153,328.53125 C193.873912,323.928929 195.347082,321.901207 200.234255,322.225728 C205.981218,322.607205 211.793293,322.596937 217.538908,322.195072 C222.40767,321.854445 223.78485,323.843754 223.695459,328.457452 C223.592651,333.768208 223.079126,339.176993 224.345405,344.893309 C249.43213,341.45566 271.41466,332.335971 291.338345,316.198632 C285.842093,310.388277 280.855867,305.117041 275.726805,299.694812 C282.19557,293.611571 288.249752,288.362942 293.321213,282.141487 C295.531497,279.429928 297.474263,279.720617 299.743314,282.045896 C303.380139,285.772608 307.145365,289.370634 311.516278,293.393649 Z" id="Shape"></path>
                        <path d="M302.692862,232.034394 C293.897225,274.21166 254.328673,311.478041 202.563023,308.333444 C161.589657,305.844462 122.577867,274.454922 114.439942,228.091974 C103.463734,165.558963 154.25793,108.957788 216.619402,114.058674 C261.137504,117.700063 297.381663,152.458995 303.811638,197.349187 C305.462242,208.872903 305.112989,220.196313 302.692862,232.034394 L189.607859,161.118393 M166.858238,252.551108 C171.523026,249.019271 171.749202,245.938461 167.963853,240.753953 C152.454793,219.512847 155.75465,191.258928 175.19846,172.943352 C193.327976,155.865766 221.919373,155.273162 241.296138,171.559465 C242.325814,172.424953 243.127639,173.775894 245.069165,173.467809 C248.350102,170.354386 251.983136,167.288498 254.540121,163.279003 C242.960449,147.590881 215.268981,139.821764 192.715908,145.751608 C164.759474,153.10209 146.415849,173.955884 142.827838,204.541397 C140.441871,224.879858 147.020589,242.726455 162.211422,258.941877 C163.969208,256.432139 165.123419,254.784194 166.858238,252.551108 Z" id="Shape"></path>
                    </g>
                    <path d="M209.805514,285.055619 C219.519236,285.055619 228.653033,283.506404 237.206908,280.407973 C245.760782,277.309542 253.336035,272.837944 259.932667,266.993177 C266.529299,261.14841 271.748612,254.176941 275.590606,246.07877 C279.432601,237.980599 281.353598,229.002192 281.353598,219.143549 C281.353598,216.608469 281.208617,214.07339 280.918655,211.53831 C280.628693,209.00323 280.193751,206.608989 279.613827,204.355585 L279.613827,204.355585 L207.413329,204.355585 L207.413329,232.030204 L248.51542,232.030204 L248.005721,233.428128 C247.398613,234.913527 246.691831,236.34391 245.885375,237.719279 L244.600935,239.741071 C240.976412,245.022487 236.192041,249.071572 230.247824,251.888327 C224.303606,254.705082 217.489503,256.11346 209.805514,256.11346 C201.541601,256.11346 194.18382,254.24736 187.732169,250.515159 C181.280518,246.782959 176.206186,241.571962 172.509172,234.882168 C168.812159,228.192375 166.963652,220.481508 166.963652,211.749567 C166.963652,202.313437 168.812159,194.215266 172.509172,187.455054 C176.206186,180.694841 181.280518,175.448635 187.732169,171.716434 C194.18382,167.984234 201.541601,166.118134 209.805514,166.118134 C218.214407,166.118134 225.608434,167.843396 231.987595,171.293921 C238.366755,174.744446 243.948521,180.272328 248.732891,187.877567 L248.732891,187.877567 L277.656584,176.680965 C271.567386,163.723892 262.977266,153.759621 251.886226,146.788152 C240.795186,139.816683 226.768282,136.330948 209.805514,136.330948 C198.786964,136.330948 188.674545,138.161839 179.468256,141.823621 C170.261968,145.485402 162.324263,150.66119 155.65514,157.350983 C148.986018,164.040777 143.80295,171.99811 140.105937,181.222983 C136.408923,190.447856 134.560416,200.623384 134.560416,211.749567 C134.560416,225.833342 137.677506,238.403112 143.911686,249.458876 C150.145865,260.51464 158.953456,269.211371 170.334458,275.54907 C181.715461,281.886769 194.872479,285.055619 209.805514,285.055619 Z" id="G" fill="#D8D6CC"></path>
                </g>
            </g>
            <path d="M105.698366,1079 C118.694898,1079 131.132987,1076.81752 143.01263,1072.45255 C154.892273,1068.08758 165.502724,1061.74315 174.843982,1053.41926 C184.18524,1045.09537 191.546558,1035.0458 196.927935,1023.27054 C202.309312,1011.49528 205,998.298867 205,983.681303 C205,979.620869 204.796929,975.560434 204.390788,971.5 C203.984646,967.439566 203.375433,963.683664 202.56315,960.232295 L202.56315,960.232295 L101.433878,960.232295 L101.433878,1003.78045 L153.92861,1003.78184 L153.789599,1004.13371 C152.657817,1006.9327 151.293971,1009.54063 149.69806,1011.95749 L149.257058,1012.6119 C144.7895,1019.10859 138.849678,1024.13338 131.437593,1027.68626 C124.025508,1031.23914 115.34423,1033.01558 105.393759,1033.01558 C94.6310054,1033.01558 85.1374443,1030.57932 76.9130758,1025.7068 C68.6887073,1020.83428 62.1904408,1013.88078 57.4182764,1004.84632 C52.6461119,995.811851 50.2600297,985.406988 50.2600297,973.631728 C50.2600297,960.638338 52.6461119,949.573654 57.4182764,940.437677 C62.1904408,931.3017 68.739475,924.246695 77.0653789,919.272663 C85.3912828,914.298631 94.9356117,911.811615 105.698366,911.811615 C117.070332,911.811615 126.919267,914.349386 135.245171,919.424929 C143.571075,924.500472 150.577018,932.215297 156.263001,942.569405 L156.263001,942.569405 L200.735513,923.688385 C192.61268,904.401322 180.682268,889.631492 164.944279,879.378895 C149.20629,869.126298 129.457652,864 105.698366,864 C90.0619118,864 75.7454185,866.639282 62.7488856,871.917847 C49.7523526,877.196412 38.5834572,884.65746 29.2421991,894.300992 C19.9009411,903.944523 12.6919267,915.466006 7.61515602,928.865439 C2.53838534,942.264873 0,957.186969 0,973.631728 C0,993.9339 4.41679049,1012.05359 13.2503715,1027.99079 C22.0839525,1043.928 34.4205052,1056.41383 50.2600297,1065.4483 C66.0995542,1074.48277 84.5789995,1079 105.698366,1079 Z M310.348135,1078 C329.584369,1078 345.479574,1074.55427 358.033748,1067.66282 C370.587922,1060.77137 380.054174,1050.4342 386.432504,1036.6513 C392.810835,1022.8684 396,1005.74111 396,985.269452 L396,985.269452 L396,867 L346.492007,867 L346.492007,988.309798 C346.492007,1001.48463 343.505329,1011.72046 337.531972,1019.01729 C331.558615,1026.31412 322.497336,1029.96254 310.348135,1029.96254 C298.401421,1029.96254 289.390764,1026.31412 283.316163,1019.01729 C277.241563,1011.72046 274.204263,1001.48463 274.204263,988.309798 L274.204263,988.309798 L274.204263,867 L225,867 L225,985.269452 C225,1005.74111 228.138544,1022.8684 234.415631,1036.6513 C240.692718,1050.4342 250.15897,1060.77137 262.814387,1067.66282 C275.469805,1074.55427 291.314387,1078 310.348135,1078 Z M453.415094,1074 L465.354302,1039.04405 L537.448485,1039.04405 L548.279874,1074 L598,1074 L529.672956,867 L477.512579,867 L404,1074 L453.415094,1074 Z M523,994 L481,994 L503.021258,929 L523,994 Z M663.439539,1074 L663.439539,1014.42291 L688.531077,1014.42291 L718.982726,1074 L773,1074 L736.785954,1003.14858 L737.430009,1002.77533 C746.420633,997.484422 753.829611,990.486903 759.656941,981.78277 L760.182342,980.986784 C767.303263,970.044053 770.863724,956.669604 770.863724,940.863436 C770.863724,925.259912 767.303263,911.936123 760.182342,900.89207 C753.06142,889.848018 743.49904,881.438326 731.495202,875.662996 C719.491363,869.887665 705.961612,867 690.90595,867 L690.90595,867 L614,867 L614,1074 L663.439539,1074 Z M663,915 L687.68984,915 C698.053476,915 706.029412,917.217054 711.617647,921.651163 C717.205882,926.085271 720,932.534884 720,941 C720,949.465116 717.205882,955.914729 711.617647,960.348837 C706.029412,964.782946 698.053476,967 687.68984,967 L687.68984,967 L663,967 L663,915 Z M867.795571,1074 C889.751278,1074 908.555934,1069.89648 924.20954,1061.68943 C939.863146,1053.48238 951.908291,1041.67841 960.344974,1026.27753 C968.781658,1010.87665 973,992.23348 973,970.348018 C973,948.665198 968.832482,930.123348 960.497445,914.722467 C952.162408,899.321586 940.168086,887.517621 924.51448,879.310573 C908.860875,871.103524 890.056218,867 868.100511,867 L868.100511,867 L794,867 L794,1074 L867.795571,1074 Z M844,915 L865.351351,915 C877.145431,915 887.363578,916.932764 896.005792,920.798293 C904.648005,924.663822 911.307593,930.716427 915.984556,938.956107 C920.661519,947.195787 923,957.825991 923,970.84672 C923,984.070897 920.610682,994.853689 915.832046,1003.19509 C911.053411,1011.5365 904.342986,1017.5891 895.700772,1021.35291 C887.058559,1025.11671 876.840412,1026.99861 865.046332,1026.99861 L865.046332,1026.99861 L844,1027 L844,915 Z M1012.41509,1074 L1024.3543,1039.04405 L1096.44848,1039.04405 L1107.27987,1074 L1157,1074 L1088.67296,867 L1036.51258,867 L963,1074 L1012.41509,1074 Z M1083,994 L1041,994 L1063.02126,929 L1083,994 Z" id="GUARDA" fill="#0B0B0B" fill-rule="nonzero"></path>
            <path d="M88.7851003,1201 L88.7851003,1173.56341 L105.518625,1173.56341 C122.252149,1173.56341 134,1162.34719 134,1145.7817 C134,1129.21622 122.595989,1118 106.148997,1118 L74,1118 L74,1201 L88.7851003,1201 Z M102.320683,1162 L89,1162 L89,1131 L102.377609,1131 C112.908918,1131 119,1136.6106 119,1146.41499 C119,1156.33272 112.851992,1162 102.320683,1162 Z M157.265625,1201 L157.265625,1165.51391 C157.265625,1156.94434 162.135417,1151.71058 170.213542,1151.71058 C172.619792,1151.71058 174.796875,1152.05566 176,1152.51577 L176,1139.57514 C174.96875,1139.34508 173.364583,1139 171.53125,1139 C164.369792,1139 159.041667,1143.25603 156.979167,1150.67532 L156.692708,1150.67532 L156.692708,1140.03525 L143,1140.03525 L143,1201 L157.265625,1201 Z M208.5,1202 C226.384016,1202 238,1190.17679 238,1170.52856 C238,1150.93744 226.269006,1139 208.5,1139 C190.730994,1139 179,1150.99456 179,1170.52856 C179,1190.17679 190.615984,1202 208.5,1202 Z M208,1191 C198.884615,1191 193,1183.58757 193,1170.5 C193,1157.47034 198.942308,1150 208,1150 C217.115385,1150 223,1157.47034 223,1170.5 C223,1183.58757 217.115385,1191 208,1191 Z M269.429285,1202 C272.515807,1202 275.369384,1201.76847 276.941764,1201.42117 L276.941764,1190.42346 C276.009983,1190.59711 274.146423,1190.71287 272.806988,1190.71287 C267.682196,1190.71287 265.352745,1188.39756 265.352745,1183.36177 L265.352745,1151.46839 L277,1151.46839 L277,1140.35491 L265.352745,1140.35491 L265.352745,1126 L250.851913,1126 L250.851913,1140.35491 L242,1140.35491 L242,1151.46839 L250.851913,1151.46839 L250.851913,1185.38766 C250.851913,1197.3115 256.093178,1202 269.429285,1202 Z M312.393327,1202 C326.859454,1202 337.579373,1194.11786 339.42366,1182.69447 L325.994944,1182.69447 C324.438827,1187.72076 319.367037,1191.03354 312.681496,1191.03354 C303.287159,1191.03354 297.293225,1184.52221 297.293225,1174.81233 L297.293225,1173.95558 L340,1173.95558 L340,1169.3291 C340,1150.93744 329.164813,1139 311.816987,1139 C294.180991,1139 283,1151.62285 283,1170.75703 C283,1190.06256 294.065723,1202 312.393327,1202 Z M326,1165 L298,1165 C298.565657,1156.29412 304.278788,1150 312.19798,1150 C320.286869,1150 325.717172,1156.17647 326,1165 Z M376.471163,1224 C394.292278,1224 406,1214.56834 406,1200.01827 L406,1140.03518 L391.927664,1140.03518 L391.927664,1150.50203 L391.69697,1150.50203 C388.178886,1143.48579 381.142717,1139 372.434018,1139 C356.804497,1139 347,1151.01962 347,1170.28552 C347,1189.26387 357.035191,1201.05345 372.14565,1201.05345 C380.912023,1201.05345 388.121212,1196.68268 391.293255,1190.12652 L391.639296,1190.12652 L391.639296,1200.42084 C391.639296,1208.18471 386.27566,1213.41813 376.932551,1213.41813 C370.127077,1213.41813 364.878788,1210.25507 363.321603,1205.59675 L349.076246,1205.59675 C350.518084,1216.29364 361.360704,1224 376.471163,1224 Z M375.855491,1190 C366.780347,1190 361,1182.73077 361,1170.61538 C361,1158.61538 366.780347,1151 375.855491,1151 C385.046243,1151 391,1158.73077 391,1170.61538 C391,1182.55769 385.046243,1190 375.855491,1190 Z M444.393327,1202 C458.859454,1202 469.579373,1194.11786 471.42366,1182.69447 L457.994944,1182.69447 C456.438827,1187.72076 451.367037,1191.03354 444.681496,1191.03354 C435.287159,1191.03354 429.293225,1184.52221 429.293225,1174.81233 L429.293225,1173.95558 L472,1173.95558 L472,1169.3291 C472,1150.93744 461.164813,1139 443.816987,1139 C426.180991,1139 415,1151.62285 415,1170.75703 C415,1190.06256 426.065723,1202 444.393327,1202 Z M457,1165 L429,1165 C429.565657,1156.29412 435.278788,1150 443.19798,1150 C451.286869,1150 456.717172,1156.17647 457,1165 Z M527.971271,1202 C543.370166,1202 554,1194.28921 554,1182.86582 C554,1173.89846 549.230939,1169.21487 537.049724,1166.35902 L526.190055,1163.96011 C520.214365,1162.53218 517.456354,1160.24751 517.456354,1156.82049 C517.456354,1152.42248 521.59337,1149.4524 527.913812,1149.4524 C534.579006,1149.4524 538.773481,1152.65095 539.233149,1157.84859 L552.563536,1157.84859 C552.218785,1146.65367 542.508287,1139 528.201105,1139 C513.376796,1139 503.551381,1146.53944 503.551381,1157.62013 C503.551381,1166.35902 509.239779,1172.18495 520.501657,1174.81233 L531.59116,1177.38259 C537.509392,1178.86763 539.750276,1180.75249 539.750276,1184.29374 C539.750276,1188.80598 535.440884,1191.60471 528.488398,1191.60471 C521.248619,1191.60471 516.939227,1188.5204 516.077348,1182.98005 L502,1182.98005 C502.976796,1194.46056 512.687293,1202 527.971271,1202 Z M589.393327,1202 C603.859454,1202 614.579373,1194.11786 616.42366,1182.69447 L602.994944,1182.69447 C601.438827,1187.72076 596.367037,1191.03354 589.681496,1191.03354 C580.287159,1191.03354 574.293225,1184.52221 574.293225,1174.81233 L574.293225,1173.95558 L617,1173.95558 L617,1169.3291 C617,1150.93744 606.164813,1139 588.816987,1139 C571.180991,1139 560,1151.62285 560,1170.75703 C560,1190.06256 571.065723,1202 589.393327,1202 Z M603,1165 L575,1165 C575.565657,1156.29412 581.278788,1150 589.19798,1150 C597.286869,1150 602.717172,1156.17647 603,1165 Z M647.485714,1203 C656.685714,1203 662.8,1198.74791 666,1191.3355 L666.285714,1191.3355 L666.285714,1201.90825 L680,1201.90825 L680,1141 L665.771429,1141 L665.771429,1176.22335 C665.771429,1185.07229 660.685714,1190.93327 652.457143,1190.93327 C644.457143,1190.93327 640.228571,1186.2215 640.228571,1177.48749 L640.228571,1141 L626,1141 L626,1180.36052 C626,1194.43837 634.342857,1203 647.485714,1203 Z M715.971271,1202 C731.370166,1202 742,1194.28921 742,1182.86582 C742,1173.89846 737.230939,1169.21487 725.049724,1166.35902 L714.190055,1163.96011 C708.214365,1162.53218 705.456354,1160.24751 705.456354,1156.82049 C705.456354,1152.42248 709.59337,1149.4524 715.913812,1149.4524 C722.579006,1149.4524 726.773481,1152.65095 727.233149,1157.84859 L740.563536,1157.84859 C740.218785,1146.65367 730.508287,1139 716.201105,1139 C701.376796,1139 691.551381,1146.53944 691.551381,1157.62013 C691.551381,1166.35902 697.239779,1172.18495 708.501657,1174.81233 L719.59116,1177.38259 C725.509392,1178.86763 727.750276,1180.75249 727.750276,1184.29374 C727.750276,1188.80598 723.440884,1191.60471 716.488398,1191.60471 C709.248619,1191.60471 704.939227,1188.5204 704.077348,1182.98005 L690,1182.98005 C690.976796,1194.46056 700.687293,1202 715.971271,1202 Z M797.376344,1202 C806.315738,1202 813.351906,1197.45479 816.69697,1190.60822 L816.927664,1190.60822 L816.927664,1201.02192 L831,1201.02192 L831,1118 L816.639296,1118 L816.639296,1150.27671 L816.293255,1150.27671 C813.063539,1143.54521 806.142717,1139 797.376344,1139 C781.977517,1139 772,1151.19726 772,1170.47123 C772,1189.86027 781.977517,1202 797.376344,1202 Z M801,1190 C791.711538,1190 786,1182.49563 786,1170.5 C786,1158.56122 791.769231,1151 801,1151 C810.057692,1151 816,1158.67493 816,1170.5 C816,1182.43878 810.057692,1190 801,1190 Z M860.19591,1202 C867.95479,1202 875.542519,1197.92994 879.022605,1191.33758 L879.307858,1191.33758 L879.307858,1201.02548 L893,1201.02548 L893,1159.17834 C893,1146.96815 883.244349,1139 868.240043,1139 C852.836383,1139 843.194833,1147.14013 842.567277,1158.49045 L855.745963,1158.49045 C856.658773,1153.44586 860.937567,1150.17834 867.669537,1150.17834 C874.68676,1150.17834 878.965554,1153.84713 878.965554,1160.21019 L878.965554,1164.56688 L862.991389,1165.48408 C848.272336,1166.40127 840,1172.87898 840,1183.65605 C840,1194.6051 848.500538,1202 860.19591,1202 Z M865.368664,1191 C859.147465,1191 855,1187.91419 855,1183.033 C855,1178.32013 858.974654,1175.29043 865.887097,1174.84158 L880,1174 L880,1178.54455 C880,1185.72607 873.490783,1191 865.368664,1191 Z M928.376344,1202 C937.315738,1202 944.351906,1197.45479 947.69697,1190.60822 L947.927664,1190.60822 L947.927664,1201.02192 L962,1201.02192 L962,1118 L947.639296,1118 L947.639296,1150.27671 L947.293255,1150.27671 C944.063539,1143.54521 937.142717,1139 928.376344,1139 C912.977517,1139 903,1151.19726 903,1170.47123 C903,1189.86027 912.977517,1202 928.376344,1202 Z M932,1190 C922.711538,1190 917,1182.49563 917,1170.5 C917,1158.56122 922.769231,1151 932,1151 C941.057692,1151 947,1158.67493 947,1170.5 C947,1182.43878 941.057692,1190 932,1190 Z M1000.5,1202 C1018.38402,1202 1030,1190.17679 1030,1170.52856 C1030,1150.93744 1018.26901,1139 1000.5,1139 C982.730994,1139 971,1150.99456 971,1170.52856 C971,1190.17679 982.615984,1202 1000.5,1202 Z M1001,1191 C991.884615,1191 986,1183.58757 986,1170.5 C986,1157.47034 991.942308,1150 1001,1150 C1010.11538,1150 1016,1157.47034 1016,1170.5 C1016,1183.58757 1010.11538,1191 1001,1191 Z M1062.97127,1202 C1078.37017,1202 1089,1194.28921 1089,1182.86582 C1089,1173.89846 1084.23094,1169.21487 1072.04972,1166.35902 L1061.19006,1163.96011 C1055.21436,1162.53218 1052.45635,1160.24751 1052.45635,1156.82049 C1052.45635,1152.42248 1056.59337,1149.4524 1062.91381,1149.4524 C1069.57901,1149.4524 1073.77348,1152.65095 1074.23315,1157.84859 L1087.56354,1157.84859 C1087.21878,1146.65367 1077.50829,1139 1063.2011,1139 C1048.3768,1139 1038.55138,1146.53944 1038.55138,1157.62013 C1038.55138,1166.35902 1044.23978,1172.18495 1055.50166,1174.81233 L1066.59116,1177.38259 C1072.50939,1178.86763 1074.75028,1180.75249 1074.75028,1184.29374 C1074.75028,1188.80598 1070.44088,1191.60471 1063.4884,1191.60471 C1056.24862,1191.60471 1051.93923,1188.5204 1051.07735,1182.98005 L1037,1182.98005 C1037.9768,1194.46056 1047.68729,1202 1062.97127,1202 Z" id="Protegeseusdados" fill="#0B0B0B" fill-rule="nonzero"></path>
        </g>
    </g>
</svg>